<svg xmlns="http://www.w3.org/2000/svg" viewBox="4 4 40 40">
  <circle cx="24" cy="24" r="20" fill="#ff8a65"/>
  <path fill="#fff" d="m19.757 26.828 7.071-7.071 1.414 1.414-7.071 7.071-1.414-1.414z"/>
  <path fill="#fff" d="m24.707 16.222-2.828 2.828 1.414 1.414 2.828-2.828a3 3 0 1 1 4.243 4.243l-2.828 2.828 1.414 1.414 2.828-2.828a5.001 5.001 0 0 0-7.071-7.071zm-1.414 15.556 2.828-2.828-1.414-1.414-2.828 2.828a3 3 0 1 1-4.243-4.243l2.828-2.828-1.414-1.414-2.828 2.828a5.001 5.001 0 0 0 7.071 7.071z"/>
</svg>